<svg width="224" height="224" viewBox="0 0 224 224" fill="none" xmlns="http://www.w3.org/2000/svg">
<path d="M224 112C224 173.856 173.856 224 112 224C50.1441 224 0 173.856 0 112C0 50.1441 50.1441 0 112 0C173.856 0 224 50.1441 224 112ZM44.8 112C44.8 149.114 74.8865 179.2 112 179.2C149.114 179.2 179.2 149.114 179.2 112C179.2 74.8865 149.114 44.8 112 44.8C74.8865 44.8 44.8 74.8865 44.8 112Z" fill="#162A4C" fill-opacity="0.1"/>
<path d="M224 112C224 173.856 173.856 224 112 224C50.1441 224 0 173.856 0 112C0 50.1441 50.1441 0 112 0C173.856 0 224 50.1441 224 112ZM44.8 112C44.8 149.114 74.8865 179.2 112 179.2C149.114 179.2 179.2 149.114 179.2 112C179.2 74.8865 149.114 44.8 112 44.8C74.8865 44.8 44.8 74.8865 44.8 112Z" fill="#ADDD8A"/>
<path d="M224 112C224 135.652 216.512 158.697 202.61 177.832L166.366 151.499C174.707 140.018 179.2 126.191 179.2 112H224Z" fill="#F3C86B"/>
<path d="M21.3901 177.832C7.48776 158.697 3.57136e-06 135.652 0 112L44.8 112C44.8 126.191 49.2926 140.018 57.6341 151.499L21.3901 177.832Z" fill="#84BFDB"/>
<path d="M0 112C2.06773e-06 88.3479 7.48776 65.303 21.3901 46.168C35.2925 27.0331 54.8957 12.7906 77.3901 5.48166C99.8846 -1.82723 124.115 -1.82722 146.61 5.48168C169.104 12.7906 188.708 27.0331 202.61 46.1681L166.366 72.5008C158.025 61.0199 146.263 52.4743 132.766 48.089C119.269 43.7037 104.731 43.7037 91.2341 48.089C77.7374 52.4743 65.9755 61.0199 57.6341 72.5008C49.2927 83.9818 44.8 97.8087 44.8 112L0 112Z" fill="#599F76"/>
<path d="M202.61 177.832C192.221 192.131 178.595 203.769 162.847 211.793C147.099 219.817 129.675 224 112 224C94.3252 224 76.9014 219.817 61.1531 211.793C45.4047 203.769 31.7791 192.131 21.3901 177.832L57.6341 151.499C63.8674 160.079 72.0428 167.061 81.4918 171.876C90.9408 176.69 101.395 179.2 112 179.2C122.605 179.2 133.059 176.69 142.508 171.876C151.957 167.061 160.133 160.079 166.366 151.499L202.61 177.832Z" fill="#DE6E6A"/>
<path d="M91.4172 102.273C94.3703 102.273 96.2844 100.422 96.2844 97.5625V96.1641H91.6594V97.5781H94.5578V97.8281C94.5422 99.5625 93.2844 100.727 91.4406 100.727C89.3234 100.727 87.9953 99.0547 87.9953 96.3594V96.3438C87.9953 93.6875 89.3156 92 91.4016 92C92.9484 92 94.0266 92.75 94.4328 94.0859L94.4562 94.1641H96.2062L96.1906 94.0859C95.7844 91.9062 93.9641 90.4531 91.4016 90.4531C88.2453 90.4531 86.2062 92.7734 86.2062 96.3516V96.3672C86.2062 99.9922 88.2219 102.273 91.4172 102.273ZM98.1831 102H99.8784V96.9297C99.8784 95.7031 100.761 94.9062 102.058 94.9062C102.378 94.9062 102.667 94.9453 102.972 95.0078V93.4453C102.8 93.4062 102.503 93.3672 102.23 93.3672C101.097 93.3672 100.308 93.8984 100.003 94.7969H99.8784V93.5156H98.1831V102ZM107.644 102.164C110.129 102.164 111.652 100.5 111.652 97.7656V97.75C111.652 95.0156 110.121 93.3516 107.644 93.3516C105.16 93.3516 103.629 95.0234 103.629 97.75V97.7656C103.629 100.5 105.152 102.164 107.644 102.164ZM107.644 100.75C106.183 100.75 105.363 99.6484 105.363 97.7656V97.75C105.363 95.8672 106.183 94.7656 107.644 94.7656C109.097 94.7656 109.926 95.8672 109.926 97.75V97.7656C109.926 99.6406 109.097 100.75 107.644 100.75ZM114.66 102H116.387L118.137 95.6719H118.27L120.028 102H121.77L124.106 93.5156H122.426L120.91 100.062H120.778L119.028 93.5156H117.418L115.668 100.062H115.543L114.02 93.5156H112.317L114.66 102ZM128.723 102.055C129.051 102.055 129.364 102.016 129.637 101.969V100.617C129.403 100.641 129.254 100.648 128.997 100.648C128.161 100.648 127.817 100.273 127.817 99.3594V94.8516H129.637V93.5156H127.817V91.375H126.09V93.5156H124.762V94.8516H126.09V99.7656C126.09 101.398 126.856 102.055 128.723 102.055ZM131.372 102H133.067V97.0234C133.067 95.6562 133.841 94.8047 135.083 94.8047C136.325 94.8047 136.911 95.5 136.911 96.9062V102H138.598V96.5078C138.598 94.4844 137.552 93.3516 135.653 93.3516C134.419 93.3516 133.606 93.8984 133.192 94.8047H133.067V90.1875H131.372V102Z" fill="#162A4C" fill-opacity="0.9"/>
<path d="M112.664 137.281C116.18 137.281 118.676 134.914 118.688 131.527V131.504C118.688 128.258 116.344 125.902 113.098 125.902C111.457 125.902 110.051 126.512 109.254 127.648H109.207L109.781 121.965H117.727V120.09H108.047L107.18 129.734H109.043C109.266 129.348 109.535 129.02 109.84 128.738C110.59 128.059 111.574 127.719 112.723 127.719C114.961 127.719 116.566 129.312 116.578 131.539V131.562C116.578 133.836 114.984 135.43 112.688 135.43C110.66 135.43 109.16 134.152 108.949 132.477L108.938 132.383H106.863L106.875 132.512C107.121 135.266 109.43 137.281 112.664 137.281Z" fill="#162A4C" fill-opacity="0.9"/>
</svg>
