<svg width="125" height="31" viewBox="0 0 125 31" fill="none" xmlns="http://www.w3.org/2000/svg">
<path fill-rule="evenodd" clip-rule="evenodd" d="M12.3256 27.2919L18.4107 17.5544L24.4957 27.2919H12.3256ZM2.95093 14.999L10.6325 2.70842H24.4957L17.2622 14.2816L9.88226 26.0905L2.95093 14.999ZM28.0872 27.9288L20.0072 14.9996L28.0867 2.07218C28.348 1.65463 28.3621 1.1286 28.1235 0.698111C27.8844 0.267331 27.4314 0 26.9391 0H9.88226C9.41522 0 8.98127 0.240857 8.7338 0.636818L0.205966 14.2816C-0.0685593 14.7202 -0.0685593 15.2776 0.20539 15.7167L8.73322 29.3638C8.73552 29.3681 8.73783 29.3719 8.74099 29.3753C8.75049 29.3906 8.76085 29.4055 8.77149 29.4205C8.77898 29.432 8.78675 29.443 8.79509 29.4536C8.80487 29.4668 8.81437 29.4795 8.82473 29.4922C8.8325 29.5019 8.84027 29.5114 8.84804 29.5209C8.87883 29.5572 8.91192 29.592 8.94617 29.6245C8.95278 29.6312 8.96027 29.6378 8.96717 29.6444C8.97552 29.6527 8.98473 29.6605 8.99307 29.668C9.00717 29.6801 9.02156 29.6913 9.03566 29.7028C9.05091 29.716 9.06674 29.7276 9.08228 29.7391C9.08285 29.7391 9.08285 29.7396 9.08285 29.7396C9.10328 29.7546 9.12372 29.7681 9.14472 29.7817C9.14961 29.7851 9.15508 29.7888 9.16112 29.792C9.18012 29.8044 9.19968 29.8159 9.21954 29.8268C9.27076 29.8556 9.324 29.8815 9.37896 29.9031C9.39162 29.908 9.40428 29.9126 9.41694 29.9178C9.43191 29.9232 9.4463 29.9284 9.46212 29.9333C9.47478 29.9373 9.48687 29.9411 9.49953 29.9448C9.5355 29.9557 9.57291 29.9652 9.61061 29.9722C9.62269 29.9747 9.63449 29.9773 9.64658 29.9796C9.6673 29.9834 9.68773 29.9862 9.70874 29.9891C9.73089 29.9917 9.75363 29.9943 9.77636 29.9957C9.78269 29.9963 9.78902 29.9969 9.79478 29.9969C9.82384 29.9989 9.85319 30.0001 9.88226 30.0001H26.9391C27.4309 30.0001 27.8844 29.7327 28.1235 29.3025C28.3621 28.8723 28.348 28.3457 28.0872 27.9288Z" fill="#376BFB"/>
<path fill-rule="evenodd" clip-rule="evenodd" d="M47.9927 24.5545L47.7872 24.3246L41.6101 17.4143L47.7815 10.5414H44.0803L38.6349 16.7372V5.47535H35.6097V24.5649H38.6349V18.0834L44.3772 24.5545L44.3862 24.5649H48.0013L47.9927 24.5545Z" fill="#162A4C"/>
<path fill-rule="evenodd" clip-rule="evenodd" d="M55.3716 21.9866C52.9018 21.9866 50.9939 20.1061 50.9939 17.549C50.9939 14.9995 52.9018 13.1198 55.3716 13.1198C57.8409 13.1198 59.7416 14.9995 59.7416 17.549C59.7416 20.1061 57.8409 21.9866 55.3716 21.9866ZM55.3716 10.1708C51.3812 10.1708 48.135 13.211 47.9759 17.2374C47.9713 17.3404 47.969 17.4446 47.969 17.549C47.969 17.6529 47.9713 17.7562 47.9759 17.8592C48.1016 21.0327 50.1629 23.6162 52.9959 24.5546C53.7415 24.8012 54.54 24.9347 55.3716 24.9347C56.2085 24.9347 57.0116 24.8012 57.7586 24.5546C60.6904 23.586 62.7738 20.8641 62.7738 17.549C62.7738 13.3687 59.4924 10.1708 55.3716 10.1708Z" fill="#162A4C"/>
<path fill-rule="evenodd" clip-rule="evenodd" d="M65.3007 24.565H68.3256V5.47541H65.3007V24.565Z" fill="#162A4C"/>
<path fill-rule="evenodd" clip-rule="evenodd" d="M78.337 22.0434C75.8168 22.0434 73.9098 20.1634 73.9098 17.5491C73.9098 14.9429 75.8168 13.0623 78.337 13.0623C80.8635 13.0623 82.7708 14.9429 82.7708 17.5491C82.7708 20.1634 80.8635 22.0434 78.337 22.0434ZM82.7708 10.5413V12.5283C81.7035 11.0681 80.0454 10.1709 77.8604 10.1709C74.0844 10.1709 70.9441 13.3023 70.879 17.4188C70.8776 17.4622 70.8776 17.5054 70.8776 17.5491C70.8776 17.5926 70.8776 17.636 70.879 17.6786C70.9308 20.9346 72.9247 23.5985 75.6363 24.5547C76.337 24.8013 77.0852 24.9348 77.8604 24.9348C78.6996 24.9348 79.4604 24.803 80.1404 24.5547C81.2313 24.1584 82.113 23.4658 82.7708 22.5487V24.5651H85.7963V10.5413H82.7708Z" fill="#162A4C"/>
<path fill-rule="evenodd" clip-rule="evenodd" d="M98.5728 10.5583L94.9786 20.7431L90.8009 10.5583H87.4979L87.5066 10.5788L93.4411 24.3329L93.3274 24.5545L93.2989 24.6106C92.6014 26.4626 91.5338 27.4733 89.5693 27.3596V30.1943C92.7936 30.3941 95.0926 28.5987 96.4091 25.0305L96.5866 24.5545L101.798 10.5583H98.5728Z" fill="#162A4C"/>
<path fill-rule="evenodd" clip-rule="evenodd" d="M124.863 24.5546L124.657 24.3246L118.48 17.4143L124.651 10.5414H120.95L115.505 16.7372V5.47535H112.48V24.5649H115.505V18.0834L121.247 24.5546L121.256 24.5649H124.871L124.863 24.5546Z" fill="#162A4C"/>
<path fill-rule="evenodd" clip-rule="evenodd" d="M106.902 8.85949H109.927V5.47541H106.902V8.85949Z" fill="#162A4C"/>
<path fill-rule="evenodd" clip-rule="evenodd" d="M106.902 24.565H109.927V10.5584H106.902V24.565Z" fill="#162A4C"/>
</svg>
